<svg xmlns="http://www.w3.org/2000/svg" xmlns:xlink="http://www.w3.org/1999/xlink" width="500" zoomAndPan="magnify" viewBox="0 0 375 374.999991" height="500" preserveAspectRatio="xMidYMid meet" version="1.0"><defs><clipPath id="758b18065e"><path d="M 26 50 L 349.40625 50 L 349.40625 325 L 26 325 Z M 26 50 " clip-rule="nonzero"/></clipPath></defs><g clip-path="url(#758b18065e)"><path fill="#ffffff" d="M 80.554688 192.40625 C 78.101562 195.269531 75.644531 198.074219 73.253906 200.9375 C 63.355469 212.789062 54.210938 225.179688 46.539062 238.613281 C 41.671875 247.136719 37.457031 255.960938 34.691406 265.417969 C 33.0625 270.976562 31.996094 276.625 32.09375 282.457031 C 32.136719 285.105469 32.449219 287.714844 33.132812 290.273438 C 34.8125 296.535156 38.457031 301.308594 44.058594 304.578125 C 48.066406 306.914062 52.429688 308.214844 56.96875 308.980469 C 63.589844 310.097656 70.238281 310.050781 76.898438 309.433594 C 92.214844 308.023438 106.84375 303.820312 121.171875 298.445312 C 128.011719 295.878906 134.742188 293.058594 141.410156 290.078125 C 141.90625 289.855469 142.382812 289.574219 142.945312 289.539062 C 143.710938 289.488281 144.316406 289.746094 144.664062 290.460938 C 144.996094 291.148438 144.824219 291.9375 144.175781 292.472656 C 143.871094 292.71875 143.507812 292.902344 143.152344 293.074219 C 127.5625 300.527344 111.484375 306.648438 94.71875 310.914062 C 87 312.882812 79.1875 314.355469 71.222656 314.847656 C 63.132812 315.347656 55.117188 314.96875 47.34375 312.339844 C 45.835938 311.832031 44.363281 311.234375 42.9375 310.527344 C 33.375 305.785156 27.976562 298.035156 26.445312 287.546875 C 25.394531 280.335938 26.316406 273.257812 28.085938 266.265625 C 30.355469 257.296875 33.964844 248.855469 38.234375 240.683594 C 44.890625 227.945312 52.976562 216.148438 61.796875 204.832031 C 66.082031 199.339844 70.539062 193.992188 75.144531 188.769531 C 75.308594 188.582031 75.453125 188.371094 75.640625 188.210938 C 76.261719 187.679688 76.195312 187.238281 75.65625 186.625 C 73.035156 183.632812 70.425781 180.625 67.886719 177.5625 C 58.003906 165.636719 48.890625 153.160156 41.234375 139.664062 C 36.214844 130.824219 31.882812 121.671875 28.996094 111.890625 C 26.867188 104.6875 25.542969 97.367188 26.164062 89.820312 C 27.109375 78.289062 32.402344 69.566406 42.929688 64.3125 C 45.292969 63.132812 47.777344 62.257812 50.335938 61.597656 C 57 59.871094 63.785156 59.546875 70.621094 59.957031 C 82.40625 60.664062 93.804688 63.371094 105.046875 66.804688 C 118.085938 70.789062 130.722656 75.804688 143.015625 81.695312 C 143.460938 81.910156 143.929688 82.097656 144.285156 82.460938 C 144.828125 83.011719 144.972656 83.730469 144.667969 84.375 C 144.363281 85.023438 143.726562 85.378906 142.953125 85.304688 C 142.347656 85.25 141.824219 84.945312 141.277344 84.703125 C 131.101562 80.199219 120.8125 75.984375 110.210938 72.5625 C 100.828125 69.539062 91.289062 67.171875 81.503906 65.90625 C 73.488281 64.867188 65.453125 64.496094 57.417969 65.785156 C 53.273438 66.453125 49.257812 67.550781 45.503906 69.46875 C 37.878906 73.367188 33.609375 79.644531 32.433594 88.066406 C 31.523438 94.585938 32.441406 100.960938 34.09375 107.261719 C 36.488281 116.410156 40.355469 124.953125 44.867188 133.226562 C 51.746094 145.839844 60.027344 157.507812 68.988281 168.707031 C 72.4375 173.019531 76.011719 177.226562 79.664062 181.367188 C 79.980469 181.730469 80.347656 182.050781 80.679688 182.378906 C 81.140625 182.242188 81.347656 181.878906 81.609375 181.59375 C 114.996094 145.824219 152.914062 115.703125 194.976562 90.773438 C 214.207031 79.375 234.183594 69.46875 255.203125 61.761719 C 265.902344 57.839844 276.792969 54.570312 288.015625 52.496094 C 296.601562 50.90625 305.242188 50.015625 313.984375 50.585938 C 319.671875 50.953125 325.242188 51.933594 330.519531 54.175781 C 341.488281 58.832031 347.566406 67.132812 348.820312 78.972656 C 349.582031 86.164062 348.433594 93.152344 346.503906 100.046875 C 343.824219 109.628906 339.683594 118.59375 334.84375 127.25 C 327.074219 141.144531 317.738281 153.949219 307.601562 166.183594 C 301.886719 173.078125 295.90625 179.742188 289.71875 186.214844 C 289.511719 186.429688 289.320312 186.660156 289.097656 186.859375 C 288.675781 187.234375 288.667969 187.589844 289.089844 187.976562 C 289.382812 188.242188 289.648438 188.542969 289.921875 188.832031 C 303.203125 202.804688 315.578125 217.519531 326.273438 233.59375 C 332.753906 243.339844 338.558594 253.460938 342.933594 264.351562 C 345.609375 271.015625 347.707031 277.84375 348.625 284.996094 C 349.289062 290.167969 349.289062 295.320312 348.078125 300.417969 C 346.019531 309.0625 340.984375 315.398438 333.097656 319.46875 C 328.171875 322.011719 322.882812 323.296875 317.410156 323.9375 C 308.640625 324.96875 299.933594 324.316406 291.261719 322.90625 C 275.574219 320.351562 260.578125 315.429688 245.894531 309.488281 C 225.476562 301.222656 206.046875 291.015625 187.3125 279.464844 C 150.726562 256.910156 117.371094 230.320312 87.457031 199.4375 C 85.554688 197.472656 83.703125 195.457031 81.820312 193.476562 C 81.484375 193.121094 81.226562 192.671875 80.554688 192.40625 Z M 284.234375 187.417969 C 283.777344 186.933594 283.410156 186.535156 283.03125 186.144531 C 269.722656 172.417969 255.609375 159.566406 240.878906 147.382812 C 231.488281 139.617188 221.8125 132.214844 212.097656 124.867188 C 211.742188 124.597656 211.386719 124.320312 211.058594 124.019531 C 210.816406 123.796875 210.753906 123.476562 210.957031 123.214844 C 211.128906 122.992188 211.425781 123.0625 211.644531 123.175781 C 211.957031 123.332031 212.25 123.523438 212.539062 123.714844 C 214.152344 124.785156 215.785156 125.835938 217.378906 126.941406 C 241.65625 143.742188 264.105469 162.726562 284.910156 183.667969 C 285.261719 184.019531 285.617188 184.367188 285.957031 184.730469 C 286.25 185.050781 286.523438 185.085938 286.820312 184.742188 C 287.015625 184.519531 287.230469 184.3125 287.4375 184.09375 C 295.53125 175.515625 303.273438 166.632812 310.515625 157.324219 C 319.328125 146 327.402344 134.195312 333.964844 121.40625 C 338.269531 113.023438 341.890625 104.371094 343.847656 95.105469 C 345.070312 89.328125 345.625 83.511719 344.601562 77.628906 C 343.140625 69.273438 338.726562 63.09375 331.105469 59.277344 C 328.648438 58.046875 326.066406 57.164062 323.398438 56.53125 C 316.195312 54.816406 308.910156 54.785156 301.59375 55.464844 C 293.503906 56.214844 285.578125 57.863281 277.746094 60 C 263.269531 63.949219 249.375 69.441406 235.8125 75.8125 C 213.398438 86.347656 192.167969 98.9375 171.785156 112.976562 C 144.722656 131.613281 119.445312 152.402344 96.28125 175.730469 C 92.847656 179.191406 89.46875 182.703125 86.160156 186.285156 C 84.976562 187.566406 84.976562 187.28125 86.203125 188.601562 C 87.792969 190.3125 89.390625 192.019531 91.011719 193.703125 C 118.554688 222.320312 149.160156 247.222656 182.367188 268.953125 C 202.574219 282.179688 223.578125 293.972656 245.796875 303.507812 C 260.765625 309.933594 276.101562 315.246094 292.195312 318.09375 C 300.207031 319.511719 308.265625 320.246094 316.402344 319.460938 C 321.738281 318.945312 326.902344 317.773438 331.6875 315.261719 C 338.066406 311.910156 342.207031 306.757812 344.035156 299.773438 C 345.015625 296.035156 345.292969 292.234375 345.050781 288.382812 C 344.613281 281.472656 342.910156 274.847656 340.554688 268.371094 C 336.832031 258.140625 331.734375 248.59375 325.949219 239.402344 C 314.800781 221.695312 301.507812 205.683594 287.1875 190.488281 C 286.417969 189.675781 286.402344 189.6875 285.59375 190.480469 C 285.523438 190.550781 285.453125 190.621094 285.382812 190.691406 C 270.941406 205.335938 255.589844 218.964844 239.414062 231.664062 C 230.808594 238.421875 222.011719 244.925781 212.855469 250.925781 C 212.441406 251.195312 212.015625 251.453125 211.574219 251.675781 C 211.355469 251.789062 211.070312 251.796875 210.914062 251.539062 C 210.773438 251.304688 210.828125 251.042969 211.023438 250.859375 C 211.3125 250.585938 211.621094 250.332031 211.9375 250.09375 C 215.773438 247.171875 219.625 244.269531 223.449219 241.328125 C 244.535156 225.121094 264.589844 207.742188 283.101562 188.621094 C 283.445312 188.265625 283.78125 187.902344 284.234375 187.417969 Z M 284.234375 187.417969 " fill-opacity="1" fill-rule="nonzero"/></g><path stroke-linecap="butt" transform="matrix(0.668288, -0.340429, 0.340429, 0.668288, 197.528591, 90.028777)" fill="none" stroke-linejoin="miter" d="M 0.000659051 2.003082 L 60.681362 1.99903 " stroke="#ffffff" stroke-width="4" stroke-opacity="1" stroke-miterlimit="4"/></svg>